<svg width="24" height="24" viewBox="0 0 24 24" xmlns="http://www.w3.org/2000/svg">
    <path d="M12 0c6.627 0 12 5.373 12 12s-5.373 12-12 12S0 18.627 0 12 5.373 0 12 0zm0 1.5C6.201 1.5 1.5 6.201 1.5 12S6.201 22.5 12 22.5 22.5 17.799 22.5 12 17.799 1.5 12 1.5zm4 13.25a.75.75 0 0 1 .102 1.493L16 16.25H8a.75.75 0 0 1-.102-1.493L8 14.75h8zm0-3.5a.75.75 0 0 1 .102 1.493L16 12.75H8a.75.75 0 0 1-.102-1.493L8 11.25h8zm0-3.5a.75.75 0 0 1 .102 1.493L16 9.25H8a.75.75 0 0 1-.102-1.493L8 7.75h8z" fill="#000" fill-rule="evenodd"/>
</svg>
